<?xml version="1.0" encoding="UTF-8" standalone="no"?>

<svg
   xmlns:dc="http://purl.org/dc/elements/1.1/"
   xmlns:cc="http://creativecommons.org/ns#"
   xmlns:rdf="http://www.w3.org/1999/02/22-rdf-syntax-ns#"
   xmlns:svg="http://www.w3.org/2000/svg"
   xmlns="http://www.w3.org/2000/svg"
   version="1.1"
   width="140.7695"
   height="27.615999">
  <path
     d="M 0.60800004,9.9199999 C 0.60799787,7.85068 0.4053314,6.4533481 4.1007996e-8,5.7279999 L 3.872,4.6719999 c 0.234661,0.3840163 0.4266608,0.9386824 0.576,1.664 1.1519929,-1.1093173 2.4853249,-1.6639834 4,-1.664 1.3439887,1.66e-5 2.453321,0.4480162 3.328,1.344 0.170653,0.1706818 0.383986,0.4373482 0.64,0.8 1.407985,-1.4293174 2.95465,-2.1439834 4.64,-2.144 1.450647,1.66e-5 2.581312,0.3946829 3.392,1.184 0.703977,0.6826814 1.055977,1.9626802 1.056,3.84 l 0,11.6480001 -4.16,0 0,-10.816 C 17.343981,9.6960115 17.301315,9.1626787 17.216,8.9279999 17.045315,8.4373461 16.639982,8.192013 16,8.1919999 c -0.874683,1.31e-5 -1.824016,0.4586793 -2.848,1.376 l 0,11.7760001 -4.064,0 0,-10.656 C 9.0879894,9.8133447 9.0346561,9.2373453 8.928,8.9599999 8.7359897,8.4266794 8.2986568,8.160013 7.616,8.1599999 6.6773251,8.160013 5.7386594,8.5760126 4.8,9.4079999 l 0,11.9360001 -4.19199996,0 0,-11.4240001"
     id="m"
     style="fill:#bbbbbb" />
  <path
     d="m 24.453,13.216 c -1e-6,-2.581323 0.671998,-4.650654 2.016,-6.2080001 1.343996,-1.5786508 3.125327,-2.3679833 5.344,-2.368 2.325323,1.67e-5 4.181321,0.8213492 5.568,2.464 1.258652,1.4720127 1.887984,3.4666771 1.888,5.9840001 -1.6e-5,2.688005 -0.682682,4.800003 -2.048,6.336 -1.344012,1.514667 -3.146677,2.272 -5.408,2.272 -2.218673,0 -4.000004,-0.768 -5.344,-2.304 -1.344002,-1.535997 -2.016001,-3.594661 -2.016,-6.176 m 9.28,-4.5440001 c -0.44801,-0.5759868 -1.066676,-0.8639865 -1.856,-0.864 -1.088007,1.35e-5 -1.824006,0.5546796 -2.208,1.664 -0.298672,0.8746781 -0.448006,2.0906761 -0.448,3.6480001 -6e-6,1.898673 0.181328,3.285338 0.544,4.16 0.383993,0.87467 1.109326,1.312003 2.176,1.312 1.770657,3e-6 2.655989,-1.845329 2.656,-5.536 -1.1e-5,-2.17599 -0.288011,-3.6373215 -0.864,-4.3840001"
     id="o"
     style="fill:#bbbbbb" />
  <path
     d="m 41.0475,8.0639999 0,-3.008 12.16,0 0,2.944 -7.232,10.3680001 7.52,0 -1.024,2.976 -12.064,0 0,-2.656 7.712,-10.6240001 -7.072,0"
     id="z"
     style="fill:#bbbbbb" />
  <path
     d="m 60.239,4.9279999 3.84,0 -1.088,2.848 -2.752,0 0,8.3520001 c -6e-6,1.045337 0.127993,1.749337 0.384,2.112 0.255993,0.341336 0.746659,0.512002 1.472,0.512 0.298658,2e-6 0.810658,-0.106664 1.536,-0.32 l 0.544,2.56 c -1.194676,0.490666 -2.357341,0.735999 -3.488,0.736 -1.088006,-1e-6 -2.037338,-0.213334 -2.848,-0.64 -0.789337,-0.447999 -1.312003,-1.034666 -1.568,-1.76 -0.192002,-0.554664 -0.288002,-1.39733 -0.288,-2.528 l 0,-9.0240001 -1.632,0 0,-2.784 1.632,0 c -2e-6,-1.7919819 0.05333,-3.0933139 0.16,-3.904 L 60.495,-1.373291e-7 C 60.324327,1.6000196 60.238994,3.2426846 60.239,4.9279999"
     id="t"
     style="fill:#bbbbbb" />
  <path
     d="m 68.325,21.344 -4.48,-16.0320001 4.256,-0.48 1.344,6.2400001 c 0.255994,1.173342 0.565327,2.869341 0.928,5.088 0.127993,-0.959994 0.522659,-2.858659 1.184,-5.696 l 1.536,-5.4400001 4.032,0 1.312,5.3440001 c 0.469318,1.877342 0.874651,3.808007 1.216,5.792 0.29865,-2.154659 0.597317,-3.935991 0.896,-5.344 l 1.248,-5.7920001 4.416,0 -4.672,16.3200001 -3.936,0 -1.472,-5.632 c -0.426679,-1.621326 -0.736012,-2.943992 -0.928,-3.968 -0.04268,-0.19199 -0.128011,-0.73599 -0.256,-1.632 -0.04268,0.320011 -0.170678,1.02401 -0.384,2.112 -0.106678,0.469342 -0.57601,2.38934 -1.408,5.76 l -0.832,3.36 -4,0"
     id="w"
     style="fill:#bbbbbb" />
  <path
     d="m 87.904,19.008 c -10e-7,-0.767997 0.266665,-1.418663 0.8,-1.952 0.554664,-0.554662 1.215997,-0.831995 1.984,-0.832 0.789328,5e-6 1.461328,0.277338 2.016,0.832 0.55466,0.533337 0.831993,1.184003 0.832,1.952 -7e-6,0.789335 -0.27734,1.461334 -0.832,2.016 -0.554672,0.554666 -1.216005,0.831999 -1.984,0.832 -0.789337,-1e-6 -1.461336,-0.277334 -2.016,-0.832 -0.533335,-0.554666 -0.800001,-1.226665 -0.8,-2.016"
     id="dot"
     style="fill:#bbbbbb" />
  <path
     d="m 95.8905,13.216 c -10e-7,-2.581323 0.671998,-4.650654 2.016,-6.2080001 1.343996,-1.5786508 3.12533,-2.3679833 5.344,-2.368 2.32532,1.67e-5 4.18132,0.8213492 5.568,2.464 1.25865,1.4720127 1.88798,3.4666771 1.888,5.9840001 -2e-5,2.688005 -0.68268,4.800003 -2.048,6.336 -1.34401,1.514667 -3.14668,2.272 -5.408,2.272 -2.21867,0 -4.000004,-0.768 -5.344,-2.304 -1.344002,-1.535997 -2.016001,-3.594661 -2.016,-6.176 m 9.28,-4.5440001 c -0.44801,-0.5759868 -1.06668,-0.8639865 -1.856,-0.864 -1.08801,1.35e-5 -1.82401,0.5546796 -2.208,1.664 -0.29867,0.8746781 -0.44801,2.0906761 -0.448,3.6480001 -1e-5,1.898673 0.18133,3.285338 0.544,4.16 0.38399,0.87467 1.10933,1.312003 2.176,1.312 1.77066,3e-6 2.65599,-1.845329 2.656,-5.536 -10e-6,-2.17599 -0.28801,-3.6373215 -0.864,-4.3840001"
     id="o2"
     style="fill:#bbbbbb" />
  <path
     d="m 113.765,10.4 c 0,-2.1333204 -0.20267,-3.7333188 -0.608,-4.8000001 l 3.84,-1.024 c 0.38399,0.6826827 0.60799,1.4613486 0.672,2.336 0.68266,-0.9386513 1.49333,-1.631984 2.432,-2.08 0.36266,-0.17065 0.83199,-0.2559833 1.408,-0.256 0.51199,1.67e-5 1.04532,0.1173499 1.6,0.352 l -1.184,3.776 c -0.40534,-0.2133205 -0.82134,-0.3199871 -1.248,-0.32 -0.96001,1.29e-5 -1.83467,0.4586791 -2.624,1.376 l 0,11.5840001 -4.288,0 0,-10.944"
     id="r"
     style="fill:#bbbbbb" />
  <path
     d="m 135.5855,5.4399999 c 1.21599,1.59e-5 2.34665,-0.469317 3.392,-1.408 l 1.792,2.72 c -0.87468,0.8106804 -1.87735,1.2160133 -3.008,1.216 -0.19202,1.33e-5 -0.56535,-0.031987 -1.12,-0.096 0.63999,0.7680127 0.95998,1.6640118 0.96,2.6880001 -2e-5,1.408009 -0.57601,2.570675 -1.728,3.488 -1.13068,0.91734 -2.57068,1.376006 -4.32,1.376 -0.21334,6e-6 -0.42668,-0.01066 -0.64,-0.032 -1.13067,0.533339 -1.69601,0.981338 -1.696,1.344 -1e-5,0.256004 0.23466,0.384004 0.704,0.384 l 2.304,0.032 c 2.28265,0.02134 3.93599,0.512004 4.96,1.472 0.93865,0.874668 1.40798,2.037334 1.408,3.488 -2e-5,1.322664 -0.43735,2.45333 -1.312,3.392 -1.32268,1.407994 -3.47734,2.111994 -6.464,2.112 -2.88001,-6e-6 -4.94934,-0.586672 -6.208,-1.76 -0.896,-0.832004 -1.344,-1.80267 -1.344,-2.912 0,-0.597334 0.128,-1.152001 0.384,-1.664 l 3.968,0 c -0.12801,0.362666 -0.19201,0.714666 -0.192,1.056 -1e-5,1.343998 1.02399,2.015997 3.072,2.016 1.25866,-3e-6 2.16532,-0.181336 2.72,-0.544 0.68266,-0.448002 1.02399,-1.002668 1.024,-1.664 -1e-5,-0.704 -0.25601,-1.194666 -0.768,-1.472 -0.51201,-0.277333 -1.25868,-0.437332 -2.24,-0.48 -0.23468,1e-6 -0.84267,-0.01067 -1.824,-0.032 -1.21601,-0.02133 -2.09067,-0.07467 -2.624,-0.16 -1.13067,-0.191999 -1.87734,-0.575998 -2.24,-1.152 -0.21334,-0.426664 -0.32,-0.874663 -0.32,-1.344 0,-0.618662 0.17066,-1.119995 0.512,-1.504 0.512,-0.554661 1.344,-0.97066 2.496,-1.248 -2.34667,-0.597326 -3.52,-2.111991 -3.52,-4.544 0,-1.6853206 0.62933,-3.0293193 1.888,-4.0320001 1.25866,-1.0026505 2.93333,-1.5039834 5.024,-1.504 0.87466,1.66e-5 1.85599,0.1386832 2.944,0.416 0.91732,0.2346827 1.58932,0.3520159 2.016,0.352 m -2.4,4.8000001 c -1e-5,-1.6213207 -0.86401,-2.4319866 -2.592,-2.4320001 -1.70667,1.35e-5 -2.56001,0.8106794 -2.56,2.4320001 -1e-5,1.557343 0.84266,2.336009 2.528,2.336 1.74932,9e-6 2.62399,-0.778657 2.624,-2.336"
     id="g"
     style="fill:#bbbbbb" />
</svg>
