<?xml version="1.0" encoding="utf-8"?>
<!-- Generator: Adobe Illustrator 16.0.0, SVG Export Plug-In . SVG Version: 6.00 Build 0)  -->
<!DOCTYPE svg PUBLIC "-//W3C//DTD SVG 1.1//EN" "http://www.w3.org/Graphics/SVG/1.1/DTD/svg11.dtd">
<svg version="1.1" id="圖層_1" xmlns="http://www.w3.org/2000/svg" xmlns:xlink="http://www.w3.org/1999/xlink" x="0px" y="0px"
	 width="600px" height="600px" viewBox="0 0 600 600" enable-background="new 0 0 600 600" xml:space="preserve">
<polygon fill="#FFFFFF" points="300,0 303.921,260.192 358.527,5.765 311.611,261.722 414.805,22.836 318.855,264.723 
	466.671,50.559 325.376,269.08 512.132,87.868 330.92,274.624 549.441,133.329 335.277,281.144 577.164,185.195 338.277,288.389 
	594.235,241.473 339.808,296.079 600,300 339.808,303.921 594.235,358.527 338.277,311.611 577.164,414.805 335.277,318.855 
	549.441,466.671 330.92,325.376 512.132,512.132 325.376,330.92 466.671,549.441 318.855,335.277 414.805,577.164 311.611,338.277 
	358.527,594.235 303.921,339.808 300,600 296.079,339.808 241.473,594.235 288.389,338.277 185.195,577.164 281.144,335.277 
	133.329,549.441 274.624,330.92 87.868,512.132 269.08,325.376 50.559,466.671 264.723,318.855 22.836,414.805 261.723,311.611 
	5.765,358.527 260.192,303.921 0,300 260.192,296.079 5.765,241.473 261.723,288.389 22.836,185.195 264.723,281.144 
	50.559,133.329 269.08,274.624 87.868,87.868 274.624,269.08 133.329,50.559 281.144,264.723 185.195,22.836 288.389,261.722 
	241.473,5.765 296.079,260.192 "/>
</svg>
